<mxfile host="www.draw.io" modified="2019-10-28T05:58:31.841Z" agent="Mozilla/5.0 (Windows NT 10.0; Win64; x64) AppleWebKit/537.36 (KHTML, like Gecko) Chrome/77.0.3865.75 Safari/537.36" etag="flwFogDfmuHc7oiBU-YM" version="12.1.7" type="github" pages="1">
  <diagram id="Ko8wFDfBLZfOLPIEC3q9" name="第 1 页">
    <mxGraphModel dx="1408" dy="820" grid="1" gridSize="10" guides="1" tooltips="1" connect="1" arrows="1" fold="1" page="1" pageScale="1" pageWidth="827" pageHeight="1169" math="0" shadow="0">
      <root>
        <mxCell id="0"/>
        <mxCell id="1" parent="0"/>
        <mxCell id="8zwt4l2MX8Rhg9tnHDZ8-1" value="&lt;font style=&quot;font-size: 18px&quot; face=&quot;Verdana&quot;&gt;i-popup&lt;/font&gt;" style="rounded=0;whiteSpace=wrap;html=1;" parent="1" vertex="1">
          <mxGeometry x="340" y="40" width="120" height="60" as="geometry"/>
        </mxCell>
        <mxCell id="qH7NrtM1DcrfVi47HFH7-1" value="&lt;span style=&quot;font-family: &amp;#34;verdana&amp;#34; ; font-size: 18px&quot;&gt;h3-toast&lt;/span&gt;" style="rounded=0;whiteSpace=wrap;html=1;" vertex="1" parent="1">
          <mxGeometry x="560" y="160" width="120" height="60" as="geometry"/>
        </mxCell>
        <mxCell id="qH7NrtM1DcrfVi47HFH7-2" value="&lt;font style=&quot;font-size: 18px&quot; face=&quot;Verdana&quot;&gt;h3-modal&lt;/font&gt;" style="rounded=0;whiteSpace=wrap;html=1;" vertex="1" parent="1">
          <mxGeometry x="340" y="160" width="120" height="60" as="geometry"/>
        </mxCell>
        <mxCell id="qH7NrtM1DcrfVi47HFH7-3" value="&lt;font style=&quot;font-size: 18px&quot; face=&quot;Verdana&quot;&gt;h3-popup&lt;/font&gt;" style="rounded=0;whiteSpace=wrap;html=1;" vertex="1" parent="1">
          <mxGeometry x="120" y="160" width="120" height="60" as="geometry"/>
        </mxCell>
        <mxCell id="qH7NrtM1DcrfVi47HFH7-4" value="" style="endArrow=classic;html=1;exitX=0.5;exitY=1;exitDx=0;exitDy=0;entryX=0.5;entryY=0;entryDx=0;entryDy=0;" edge="1" parent="1" source="8zwt4l2MX8Rhg9tnHDZ8-1" target="qH7NrtM1DcrfVi47HFH7-3">
          <mxGeometry width="50" height="50" relative="1" as="geometry">
            <mxPoint x="120" y="290" as="sourcePoint"/>
            <mxPoint x="300" y="160" as="targetPoint"/>
          </mxGeometry>
        </mxCell>
        <mxCell id="qH7NrtM1DcrfVi47HFH7-5" value="" style="endArrow=classic;html=1;entryX=0.5;entryY=0;entryDx=0;entryDy=0;exitX=0.5;exitY=1;exitDx=0;exitDy=0;" edge="1" parent="1" source="8zwt4l2MX8Rhg9tnHDZ8-1" target="qH7NrtM1DcrfVi47HFH7-2">
          <mxGeometry width="50" height="50" relative="1" as="geometry">
            <mxPoint x="120" y="290" as="sourcePoint"/>
            <mxPoint x="170" y="240" as="targetPoint"/>
          </mxGeometry>
        </mxCell>
        <mxCell id="qH7NrtM1DcrfVi47HFH7-6" value="" style="endArrow=classic;html=1;entryX=0.5;entryY=0;entryDx=0;entryDy=0;exitX=0.5;exitY=1;exitDx=0;exitDy=0;" edge="1" parent="1" source="8zwt4l2MX8Rhg9tnHDZ8-1" target="qH7NrtM1DcrfVi47HFH7-1">
          <mxGeometry width="50" height="50" relative="1" as="geometry">
            <mxPoint x="120" y="290" as="sourcePoint"/>
            <mxPoint x="170" y="240" as="targetPoint"/>
          </mxGeometry>
        </mxCell>
      </root>
    </mxGraphModel>
  </diagram>
</mxfile>
